# xmcd
#
# Track frame offsets: 
#        150
#        11078
#        23974
#        25721
#        45722
#        54601
#        56351
#        66137
#        80933
#        82418
#        94526
#        105453
#        107148
#        118136
#        128336
#        130083
#        147165
#        148911
#
# Disc length: 2089 seconds
#
# Revision: 0
# Processed by: cddbd v1.5.2PL0 Copyright (c) Steve Scherf et al.
# Submitted via: ExactAudioCopy v0.99pb4
#
DISCID=fc082712
DTITLE=Redneck Yacht Club - Redneck Yacht Club
DYEAR=2012
DGENRE=Comedy
TTITLE0=I'm Gonna Miss Her
TTITLE1=Going Ugly Tonight
TTITLE2=Slidawg Doctor Advice
TTITLE3=Fishin's Better Than Most Things
TTITLE4=The Crack of Dawn
TTITLE5=Catfish and Lawyers
TTITLE6=Up the Creek
TTITLE7=Redneck Yacht Club
TTITLE8=Fish and Elephants
TTITLE9=Lakeside Pickin'
TTITLE10=You Get a Line
TTITLE11=Politicians and Diapers
TTITLE12=The Talking Frog
TTITLE13=Skipping Rocks
TTITLE14=Pigs Can fly
TTITLE15=Redneck Parrothead
TTITLE16=Run for President
TTITLE17=The Fisherman's Prayer
EXTD=
EXTT0=
EXTT1=
EXTT2=
EXTT3=
EXTT4=
EXTT5=
EXTT6=
EXTT7=
EXTT8=
EXTT9=
EXTT10=
EXTT11=
EXTT12=
EXTT13=
EXTT14=
EXTT15=
EXTT16=
EXTT17=
PLAYORDER=
